# xmcd
#
# Track frame offsets: 
#        150
#        16683
#        27849
#        41943
#        56205
#        69529
#        83542
#        98319
#        111650
#        124974
#        136118
#        156348
#
# Disc length: 2230 seconds
#
# Revision: 3
# Processed by: cddbd v1.5.1PL2 Copyright (c) Steve Scherf et al.
# Submitted via: ExactAudioCopy v0.95b4
#
DISCID=9b08b40c
DTITLE=Brook Benton - Songs I Love To Sing
DYEAR=1959
DGENRE=Jazz
TTITLE0=Moonlight in Vermont
TTITLE1=Its Been a Long Long Time
TTITLE2=Lover Come Back To Me
TTITLE3=If You Are But A Dream
TTITLE4=Why Try To Change Me
TTITLE5=September Song
TTITLE6=Oh! What It Seemed To Be
TTITLE7=Baby Won't You Please Come Home
TTITLE8=They Can't Take That Away From Me
TTITLE9=I'll Be Around
TTITLE10=I Don't Know Enough About You
TTITLE11=Fools Rush In (Where Angels Fear To Tread)
EXTD=YEAR: 2003
EXTT0=
EXTT1=
EXTT2=
EXTT3=
EXTT4=
EXTT5=
EXTT6=
EXTT7=
EXTT8=
EXTT9=
EXTT10=
EXTT11=
PLAYORDER=
